PathFileType	4	(X/Y/Z)	D:/Ayumi_testdata/Ayumi_25_09_2024/25-09-2024/conventional_dl_80kg01/conventional_dl_80kg01.trc	
DataRate	CameraRate	NumFrames	NumMarkers	Units	OrigDataRate	OrigDataStartFrame	OrigNumFrames	
200.00	200.00	4	55	mm	200.00	1145	2620	
Frame#	Time	RSACR			LSACR			USACR			LBAR			RBAR			RHEE			RMT1			RMT5			RMT2			LHEE			LMT1			LMT5			LMT2			LMMAL			LLMAL			LTIB4			LTIB3			LTIB2			LTIB1			RMMAL			RLMAL			RTIB1			RTIB3			RTIB2			RTHI			RTHI4			RTHI3			RTHI2			LTHI1			LTHI4			LTHI3			LTHI2			FHD			LBHD			RBHD			C7			T10			CLAV			LSHO			RSHO			LRAD			LUL			LRFIN			RRAD			RUL			RUFIN			LMUPA			LDUPA			LUUPA			RMUPA			RUUPA			RDUPA			*52			*53			*54			
		X1	Y1	Z1	X2	Y2	Z2	X3	Y3	Z3	X4	Y4	Z4	X5	Y5	Z5	X6	Y6	Z6	X7	Y7	Z7	X8	Y8	Z8	X9	Y9	Z9	X10	Y10	Z10	X11	Y11	Z11	X12	Y12	Z12	X13	Y13	Z13	X14	Y14	Z14	X15	Y15	Z15	X16	Y16	Z16	X17	Y17	Z17	X18	Y18	Z18	X19	Y19	Z19	X20	Y20	Z20	X21	Y21	Z21	X22	Y22	Z22	X23	Y23	Z23	X24	Y24	Z24	X25	Y25	Z25	X26	Y26	Z26	X27	Y27	Z27	X28	Y28	Z28	X29	Y29	Z29	X30	Y30	Z30	X31	Y31	Z31	X32	Y32	Z32	X33	Y33	Z33	X34	Y34	Z34	X35	Y35	Z35	X36	Y36	Z36	X37	Y37	Z37	X38	Y38	Z38	X39	Y39	Z39	X40	Y40	Z40	X41	Y41	Z41	X42	Y42	Z42	X43	Y43	Z43	X44	Y44	Z44	X45	Y45	Z45	X46	Y46	Z46	X47	Y47	Z47	X48	Y48	Z48	X49	Y49	Z49	X50	Y50	Z50	X51	Y51	Z51	X52	Y52	Z52	X53	Y53	Z53	X54	Y54	Z54	X55	Y55	Z55	

983	4.910	479.14188	962.66248	622.86743	482.10913	904.93823	626.13611	465.40829	933.87262	633.54028	217.20979	-196.73938	251.25435	139.58109	2022.67383	243.85849	276.85016	1347.14282	36.10050	118.49519	1459.16907	43.46110	186.99657	1504.53931	29.90929	148.49437	1487.04712	42.81660	310.47400	489.98419	44.99009	145.99693	393.92203	49.51925	210.10878	345.76501	30.44866	171.49481	363.80569	46.54953	249.96129	497.70944	75.67547	292.69293	427.58130	69.77551	296.61954	456.61932	211.02304	275.56668	446.57111	271.83444	311.37311	482.74545	269.37485	301.06616	480.64468	308.91144	225.11409	1348.17139	68.28967	270.36816	1411.19189	71.09772	236.48779	1394.78894	315.53796	251.03456	1394.31506	252.17227	273.34125	1364.39832	306.15106	453.41400	1133.03564	527.06177	362.93341	1233.02808	462.06903	346.21973	1226.42261	510.37466	398.49957	1188.83191	495.68716	478.16739	730.53143	525.17560	370.51392	626.31012	515.01404	394.14365	627.64630	468.90128	417.07230	671.77637	512.38666	-2.37700	834.57507	1094.99646	110.91319	839.70490	1094.84875	128.62633	963.04877	1083.66016	163.09145	912.88861	938.96667	426.96582	930.12744	674.22241	93.61960	916.37952	816.91077	149.50223	740.10852	855.79443	103.80768	1068.93701	848.77191	140.99196	652.36438	315.97363	145.71565	692.71423	317.67203	153.50101	714.04767	229.96509	128.14003	1142.63428	314.61499	119.86234	1189.80786	312.56018	136.78882	1127.69336	224.70622	154.73369	679.87115	605.39966	129.72592	716.42285	627.75128	146.62553	695.25739	682.54578	117.06450	1138.09448	606.06683	110.77747	1120.78137	665.90228	105.35318	1091.75586	591.85437	220.60184	-149.52821	250.25911						 
984	4.915	478.97986	962.66333	622.82623	482.08737	904.89948	626.20642	465.25018	933.87006	633.48785	217.44850	-196.72935	251.29822	139.70331	2022.67053	243.90858	276.84418	1347.13611	36.09918	118.49600	1459.19543	43.45359	186.99646	1504.55530	29.88531	148.48967	1487.06689	42.79576	310.46741	490.00049	44.98993	145.99216	393.93436	49.50696	210.11487	345.76807	30.46000	171.48383	363.81216	46.54404	249.94371	497.74255	75.64844	292.62958	427.61084	69.75523	296.49445	456.62494	211.02483	275.40430	446.56744	271.84872	311.16489	482.77191	269.40640	300.87656	480.62912	308.91565	225.10875	1348.20215	68.29279	270.37582	1411.19312	71.10388	234.64673	1395.35571	315.57016	250.94174	1394.43201	252.18106	273.23904	1364.57275	306.17038	453.22504	1133.05103	527.03821	362.73196	1233.08850	462.08026	346.03552	1226.43274	510.36969	398.32123	1188.89294	495.75934	477.94620	730.59204	525.10706	370.24591	626.41986	514.96545	393.89169	627.73840	468.85919	416.84479	671.85632	512.35895	-2.31805	834.53394	1095.05249	110.97011	839.67792	1094.87988	128.67506	963.02277	1083.69519	162.86661	912.90302	938.85138	426.84531	930.11511	674.15918	93.53359	916.35046	816.92352	149.45793	740.06732	855.76331	103.73034	1068.87915	848.74408	141.14671	652.35541	315.92691	145.86041	692.70502	317.63379	153.70415	714.04535	229.94884	128.30040	1142.63062	314.59543	120.00328	1189.82202	312.52457	136.97125	1127.68262	224.68886	154.68921	679.88153	605.34082	129.70190	716.42542	627.70715	146.50681	695.23688	682.49255	116.98954	1138.05701	606.03656	110.68150	1120.72949	665.85077	105.36244	1091.70129	591.80310	220.73889	-149.52908	250.26495						 
985	4.920	478.80905	962.67499	622.77673	481.91928	904.89581	626.14783	465.07306	933.87317	633.44110	217.69740	-196.73602	251.31627	139.82045	2022.66235	243.95198	276.84924	1347.14319	36.08339	118.49778	1459.21326	43.42313	186.98640	1504.58093	29.87654	148.49660	1487.09729	42.76506	310.45392	490.02689	44.98423	145.97975	393.94183	49.48716	210.10092	345.75922	30.45816	171.46863	363.82037	46.54461	249.93707	497.75806	75.62534	292.60822	427.64285	69.76658	296.39886	456.60773	211.03470	275.24927	446.56699	271.82898	311.01172	482.76181	269.41406	300.68018	480.63797	308.93347	225.10947	1348.20886	68.30508	270.36670	1411.17651	71.11130	234.47374	1395.48145	315.56726	250.80539	1394.57666	252.17529	273.12347	1364.76001	306.21176	453.01874	1133.09741	527.01569	362.54010	1233.12183	462.07941	345.83591	1226.48206	510.34775	398.15860	1188.91504	495.76682	477.71918	730.67767	525.03235	369.96423	626.54803	514.91791	393.64240	627.82971	468.84488	416.59103	671.94965	512.31274	-2.25919	834.49768	1095.11206	111.02132	839.65247	1094.90698	128.70198	962.99603	1083.71851	162.81329	912.87256	938.85974	426.71548	930.09277	674.10236	93.45459	916.31299	816.93066	149.40642	740.03119	855.73199	103.63057	1068.83386	848.71198	141.29919	652.35565	315.88187	146.00047	692.69318	317.60919	153.87534	714.06573	229.93291	128.45346	1142.63611	314.57309	120.14785	1189.81042	312.49445	136.98851	1127.62109	224.64296	154.67064	679.88336	605.30267	129.69562	716.45221	627.63599	146.45697	695.25323	682.45496	116.89590	1138.00562	605.99652	110.59089	1120.66626	665.79773	105.33521	1091.62012	591.73865									 
986	4.925	478.62192	962.69543	622.73651	481.74020	904.91516	626.10278	464.87201	933.89410	633.39844	217.97388	-196.74136	251.30795	139.95351	2022.66748	243.98917	276.83289	1347.11768	36.08959	118.49743	1459.22119	43.39021	187.00938	1504.59045	29.87517	148.48666	1487.10803	42.73759	310.45209	490.06430	44.97635	145.96895	393.94742	49.45987	210.06624	345.75504	30.44966	171.45940	363.82800	46.53697	249.92522	497.78925	75.60534	292.58585	427.66864	69.76171	296.30942	456.62393	211.03958	275.10748	446.57126	271.83197	310.90897	482.73114	269.47202	300.51938	480.62997	308.95309	225.10773	1348.23242	68.31042	270.35501	1411.17456	71.11340	233.39732	1395.19373	315.60617	250.65816	1394.74561	252.21646	272.99918	1364.95227	306.23724	452.79565	1133.14978	526.98212	362.29858	1233.17505	462.08624	345.59915	1226.57092	510.39200	397.88602	1188.98535	495.76157	477.49008	730.76184	524.94781	369.71091	626.65192	514.86548	393.40167	627.92633	468.79935	416.32001	672.06702	512.26862	-2.22473	834.45972	1095.16272	111.05556	839.62769	1094.91675	128.71434	962.97742	1083.73804	162.72430	912.84442	938.87482	426.57858	930.08807	674.04785	93.34112	916.28564	816.94208	149.33134	740.00201	855.69446	103.53145	1068.79968	848.68542	141.45831	652.35022	315.84009	146.14842	692.68860	317.57193	154.07800	714.07446	229.91335	128.59782	1142.63757	314.56860	120.28922	1189.80811	312.48346	137.16022	1127.61279	224.64899	154.64740	679.90442	605.24890	129.63527	716.45190	627.57874	146.42526	695.21753	682.39954	116.82116	1137.97632	605.96075	110.50127	1120.62195	665.74524	105.32827	1091.58276	591.67957									 
